<?xml version="1.0" encoding="utf-8"?>
<!-- Generator: Adobe Illustrator 28.4.1, SVG Export Plug-In . SVG Version: 6.00 Build 0)  -->
<svg version="1.0" id="图层_1" xmlns="http://www.w3.org/2000/svg" xmlns:xlink="http://www.w3.org/1999/xlink" x="0px" y="0px"
	 viewBox="0 0 2030 205" style="enable-background:new 0 0 2030 205;" xml:space="preserve">
<style type="text/css">
	.st0{fill-rule:evenodd;clip-rule:evenodd;}
</style>
<path d="M80,1h160v40H80V1z"/>
<path class="st0" d="M40,1H0v200h40v-40h40v40h160v-40H80v-40h160V81H80V41l-40,0V1z M40,121h40V81H40V121z"/>
<path d="M1909.2,97c0-25.7,21.7-40.7,56.7-40.7c35.1,0,56.8,15.8,59.6,39.9v4.2h-22.6c-1.1-18.2-15.1-26.1-36.5-26.1
	c-21,0-33.8,8.1-33.8,21.8c0,13.9,11.9,18.8,26.8,21.3l22.8,3.8c28.1,4.7,47.9,14,47.9,40.3c0,26.5-20.8,43.1-58.9,43.1
	c-38.2,0-61.4-16.5-64.9-42.4v-4.2h22.9c1.7,18.8,18.5,28.6,41.9,28.6c23.5,0,35.6-9.9,35.6-23.6c0-14.3-12.4-19.2-30.3-22.1
	l-22.8-3.8C1927.8,132.5,1909.2,121.6,1909.2,97z"/>
<path d="M1762,130.2c0-48.1,26.2-74,67.8-74c41.8,0,64.4,26.3,64.4,67.9v11.4h-108.5c0.6,31.1,16.8,50.4,44,50.4
	c25.8,0,37.4-15.6,39.6-29.2h21.8v4.2c-3.1,17.4-18.9,43.5-61.3,43.5C1788.4,204.3,1762,178.4,1762,130.2z M1786.1,117.7h84.6
	c-0.3-25.8-13.9-43.1-41.1-43.1C1802.9,74.6,1788.1,92.1,1786.1,117.7z"/>
<path d="M1615.7,77.4V59.5h28.2v-39h24.3v39h32.6v17.9h-32.6v92.4c0,7.9,3.6,12.4,12.5,12.4h19.3V201h-23.8
	c-20.7,0-32.4-10.3-32.4-30.8V77.4H1615.7z"/>
<path class="st0" d="M1716.5,34.3V9.2h25.2v25.2H1716.5z M1716.8,59.4v141.5h24.4V59.4H1716.8z"/>
<path class="st0" d="M1577.2,34.3V9.2h25.2v25.2H1577.2z M1577.5,59.4v141.5h24.4V59.4H1577.5z"/>
<path d="M1525.5,201V1h24.4v200H1525.5z"/>
<path d="M1399.4,100.3h-22.6v-4.2c2.9-24.7,25.6-40,59.6-40c34,0,56.4,15.3,56.4,50.6v65.6c0,7.2,3.5,10.8,10.7,10.8h7.9V201h-11.9
	c-17.1,0-25.3-8.8-26.1-21.9h-2.8c-7.4,13.6-21.1,25-49.3,25c-30.4,0-51.7-17.1-51.7-42.5c0-27.8,21.7-39.3,49.2-41.9l32.8-3.1
	c11.7-1.1,17.9-4.3,17.9-15.1c0-18.1-12.1-27.1-33.5-27.1S1400.2,83.1,1399.4,100.3z M1393.7,160.7c0,15.1,12.6,25.1,31.4,25.1
	c22.5,0,44.5-13.2,44.5-47.4V129h-2.8c-4.3,2.6-8.5,4.2-21,5.4l-21.5,2.1C1404.8,138.6,1393.7,145.3,1393.7,160.7z"/>
<path d="M1223.2,130.2c0-48.1,26.3-74,67.8-74c41.8,0,64.4,26.3,64.4,67.9v11.4h-108.5c0.5,31.1,16.8,50.4,44,50.4
	c25.8,0,37.4-15.6,39.6-29.2h21.8v4.2c-3.1,17.4-18.9,43.5-61.2,43.5C1249.6,204.3,1223.2,178.4,1223.2,130.2z M1247.3,117.7h84.6
	c-0.3-25.8-13.9-43.1-41.1-43.1C1264.1,74.6,1249.3,92.1,1247.3,117.7z"/>
<path d="M1200.6,148.5l2.2,21.3c1.5,12.5,3.6,19.9,8.2,27.1v4.2h-26c-3.9-7.9-6.1-15.7-7.4-29.3l-1.7-19.6
	c-2.2-25.7-12.9-35.8-46-35.8h-50.7V201H1054V1h90c36.7,0,64.6,18.2,64.6,54.3c0,28.2-15.6,43.8-37.6,49.4v2.8
	C1192,112.7,1198.1,125.4,1200.6,148.5z M1141.3,21.3h-61.9V96h61.9c25.3,0,42.2-11.9,42.2-37.4
	C1183.6,33.4,1166.6,21.3,1141.3,21.3z"/>
<path d="M830.9,201V59.5h23.8v20h2.8c4.7-9,16.7-23.2,45.8-23.2c31.1,0,51.7,17.1,51.7,49.6V201h-24.4v-93.5
	c0-22.2-13.2-32.1-33.1-32.1c-22.6,0-42.1,14.4-42.1,43.9V201H830.9z"/>
<path d="M677.4,130.2c0-48.1,26.3-74,67.8-74c41.8,0,64.4,26.3,64.4,67.9v11.4H701.2c0.6,31.1,16.8,50.4,44,50.4
	c25.8,0,37.4-15.6,39.6-29.2h21.8v4.2c-3.1,17.4-18.9,43.5-61.3,43.5C703.8,204.3,677.4,178.4,677.4,130.2z M701.6,117.7h84.6
	c-0.3-25.8-13.9-43.1-41.1-43.1C718.4,74.6,703.5,92.1,701.6,117.7z"/>
<path d="M539.4,63.6v-4.2h23.9l43.2,114h2.8l43.1-114h23.9v4.2L621.5,201h-27.4L539.4,63.6z"/>
<path d="M400,201V1h140.1v20.3H425.4v67.1h100.8v20.3H425.4v72.1h117.5V201H400z"/>
</svg>
