<!--?xml version="1.0" encoding="utf-8"?-->
<!-- Generator: Adobe Illustrator 18.0.0, SVG Export Plug-In . SVG Version: 6.00 Build 0)  -->

<svg version="1.1" id="_x32_" xmlns="http://www.w3.org/2000/svg" xmlns:xlink="http://www.w3.org/1999/xlink" x="0px" y="0px" viewBox="0 0 512 512" style="width: 256px; height: 256px; opacity: 1;" xml:space="preserve">
<style type="text/css">
	.st0{fill:#D44444;}
</style>
<g>
	<path class="st0" d="M358.568,491.36c78.103-33.259,136.717-104.274,151.672-192.564h-0.031c0.01-0.053,0.022-0.104,0.029-0.156
		h-131.84C360.878,348.32,313.358,384,257.761,384c-70.64,0-128-57.44-128-128c0-70.641,57.36-128,128-128
		c55.598,0,103.039,35.6,120.637,85.279h113.01l18.596,0.026c-0.002-0.008-0.004-0.018-0.004-0.026h0.16
		c-3.855-22.98-10.781-44.91-20.32-65.373c-1.064-2.299-2.203-4.549-3.332-6.808c-0.422-0.84-0.808-1.698-1.24-2.532
		c-25.444-49.588-66.369-89.162-116.07-113.088c-0.31-0.15-0.611-0.312-0.924-0.462c-1.619-0.772-3.268-1.486-4.906-2.224
		C331.163,8.186,295.425,0,257.761,0c-141.441,0-256,114.56-256,256c0,141.359,114.559,256,256,256
		c33.725,0,65.906-6.587,95.402-18.453c1.68-0.67,3.369-1.314,5.031-2.02C358.32,491.474,358.44,491.414,358.568,491.36z" style="fill: #D44444;"></path>
</g>
</svg>
